/* XPM */
static char *close_focus[] = {
/* columns rows colors chars-per-pixel */
"24 24 90 1 ",
"  c #100804",
". c #100C04",
"X c #352010",
"o c #392010",
"O c #3D2410",
"+ c #3D2414",
"@ c #242424",
"# c #282424",
"$ c #282824",
"% c #282828",
"& c #2D2828",
"* c #2D2D28",
"= c #312D2D",
"- c #31312D",
"; c #35312D",
": c #353531",
"> c #393531",
", c #393931",
"< c #393935",
"1 c #3D3935",
"2 c #3D3D35",
"3 c #3D3939",
"4 c #3D3D39",
"5 c #412410",
"6 c #412414",
"7 c #492814",
"8 c #492D14",
"9 c #4D2D14",
"0 c #513118",
"q c #59391C",
"w c #5D391C",
"e c #413D39",
"r c #414139",
"t c #41413D",
"y c #45413D",
"u c #494139",
"i c #4D4539",
"p c #554939",
"a c #5D4D39",
"s c #5D493D",
"d c #614D3D",
"f c #654D3D",
"g c #65513D",
"h c #69513D",
"j c #6D513D",
"k c #71553D",
"l c #75553D",
"z c #7D593D",
"x c #454541",
"c c #494945",
"v c #4D4945",
"b c #4D4D49",
"n c #514D49",
"m c #55514D",
"M c #555551",
"N c #595551",
"B c #5D5955",
"V c #7D5941",
"C c #616159",
"Z c #65655D",
"A c #C6753D",
"S c #825D41",
"D c #865D41",
"F c #926141",
"G c #966541",
"H c #9A6541",
"J c #AA7145",
"K c #AE7145",
"L c #B67545",
"P c #BA7545",
"I c #BE7945",
"U c #CA7941",
"Y c #CA7D45",
"T c #CE8245",
"R c #CE8249",
"E c #D28245",
"W c #DF8241",
"Q c #DF8641",
"! c #DB8245",
"~ c #DF8645",
"^ c #D28249",
"/ c #D78249",
"( c #D78649",
") c #DB8649",
"_ c #E38641",
"` c #E78641",
"' c #E38645",
"] c #E38A45",
"[ c #E78A45",
"{ c #EB8A45",
/* pixels */
"ZZZZZZZZZZZZZZZZZZZZZZZZ",
"CCCCCCCCCCCCCCCCCCCCCCCC",
"BBBBBBBBBBBBBBBBBBBBBBBB",
"NNNNNNNMbxr44rxbMNNNNNNN",
"mmmmmmce4eajjse4evmmmmmm",
"nnnnbt4iHT((((YFu4ybnnnn",
"cccct4lT())))))(Tk4rcccc",
"xxxr4D()))~~~~)))/V4txxx",
"ttt4f/))~~~''~~~))^d4rtt",
"4444P()~U!]]]]!U~)(P4444",
"114g()~~q6~[[~+w~~)(g411",
"<<4G()~'~8oQQo0''~)(G4<<",
",<4K()~]['8XX9'[]~)(K4<,",
":<4P))~][{W .W{[]~))L4<:",
":,4K()~][Qo875'[]~)(J4,:",
";:4G()~'!O8`_O7~'~)(G4:;",
"--2h()~~q6~[[~wA~~)(f3--",
"--<4I()~U!]]]]'~~)(P4,--",
"**-4gE))~~~''~~~))Ed4-**",
"***:4S()))~~~~)))(z4:***",
"&&&&<4lR())))))(Tk4>&&&&",
"$$$$%:4uFY((((YHi4:%$$$$",
"$$$$$$-14eajhp441-$$$$$$",
"@@@@@@@#*:<11<:=#@@@@@@@"
};
