/* XPM */
static char *close_pressed[] = {
/* columns rows colors chars-per-pixel */
"24 24 120 2 ",
"   c #100804",
".  c #351C08",
"X  c #391C08",
"o  c #3D200C",
"O  c #242424",
"+  c #282424",
"@  c #282824",
"#  c #282828",
"$  c #2D2828",
"%  c #2D2D28",
"&  c #2D2D2D",
"*  c #31312D",
"=  c #35312D",
"-  c #353531",
";  c #393931",
":  c #393935",
">  c #3D3935",
",  c #3D3D35",
"<  c #3D3D39",
"1  c #41200C",
"2  c #45240C",
"3  c #49240C",
"4  c #49280C",
"5  c #4D280C",
"6  c #51280C",
"7  c #593110",
"8  c #5D3110",
"9  c #613110",
"0  c #613514",
"q  c #413D39",
"w  c #4D4135",
"e  c #414139",
"r  c #41413D",
"t  c #494139",
"y  c #4D4139",
"u  c #554535",
"i  c #594935",
"p  c #514139",
"a  c #594939",
"s  c #614935",
"d  c #654935",
"f  c #654D35",
"g  c #694D35",
"h  c #6D4D35",
"j  c #614D39",
"k  c #694D39",
"l  c #6D5135",
"z  c #755131",
"x  c #795135",
"c  c #7D5535",
"v  c #715139",
"b  c #755139",
"n  c #7D5539",
"m  c #454541",
"M  c #494945",
"N  c #4D4D49",
"B  c #514D49",
"V  c #55514D",
"C  c #555551",
"Z  c #595551",
"A  c #5D5955",
"S  c #616159",
"D  c #65655D",
"F  c #865531",
"G  c #8A5935",
"H  c #8A5939",
"J  c #965931",
"K  c #965D31",
"L  c #A2612D",
"P  c #B2652D",
"I  c #BE6528",
"U  c #B6692D",
"Y  c #A26131",
"T  c #A26135",
"R  c #AA6535",
"E  c #A26539",
"W  c #B26531",
"Q  c #B66931",
"!  c #BA6931",
"~  c #BE6D31",
"^  c #CE6924",
"/  c #C2692D",
"(  c #C26D2D",
")  c #C66D2D",
"_  c #CE6D28",
"`  c #CA6D2D",
"'  c #CE6D2D",
"]  c #D26D28",
"[  c #CA712D",
"{  c #CE712D",
"}  c #DB7124",
"|  c #D77128",
" . c #D2712D",
".. c #D7712D",
"X. c #D7752D",
"o. c #DB7128",
"O. c #DB7528",
"+. c #DF7528",
"@. c #DB752D",
"#. c #CE7131",
"$. c #D27535",
"%. c #E37524",
"&. c #E77524",
"*. c #E37528",
"=. c #E37928",
"-. c #E77928",
";. c #E7792D",
":. c #EB7928",
">. c #EF7928",
",. c #EF7D28",
"<. c #EB7D2D",
"1. c #EF7D2D",
"2. c #E37D35",
"3. c #EB7D31",
"4. c #EF7D31",
"5. c #E37D39",
"6. c #E78235",
"7. c #EF8231",
"8. c #EF8235",
"9. c #EF8635",
/* pixels */
"D D D D D D D D D D D D D D D D D D D D D D D D ",
"S S S S S S S S S S S S S S S S S S S S S S S S ",
"A A A A A A A A A A A A A A A A A A A A A A A A ",
"Z Z Z Z Z Z Z C N m e < < q m N C Z Z Z Z Z Z Z ",
"V V V V V V M q < < u d d i < < q M V V V V V V ",
"B B B B N r < t F Q ( ) ) ` ) J w < r N B B B B ",
"M M M M e < h ! ( ) ` [ { {  . .{ z < e M M M M ",
"m m m e < x ) ) ` [ { {  .....@.O.+.F < e m m m ",
"r r r < s ) ` [ {  . ...X.@.O.+.+.*.*.g < e r r ",
"< < < < W { {  .I _ X.O.O.+.o.^ -.-.:.' < < < < ",
"> > , f {  . ...7 o | +.*.O.o 8 :.>.>.,.h < > > ",
": : < K ....@.O.O.2 . o.o.X 6 :.,.,.,.,.Y < : : ",
"; : < P O.O.+.*.*.*.3 . . 5 :.,.,.,.1.1.( < : ; ",
"- : < / +.*.*.-.-.:.}     %.,.,.1.1.1.1.#.< : - ",
"- : < U =.-.-.:.>.&.X 3 3 1 -.1.1.1.1.7.~ < : - ",
"= - < L :.:.>.,.-.1 4 :.-.1 4 <.1.7.7.7.T < - = ",
"* * < h >.,.,.,.9 1 -.1.1.;.0 ] 7.7.7.7.l , * * ",
"* * : ,  .,.,.1.| -.1.1.7.7.4.7.7.7.8.$.< : * * ",
"% % * , h 1.1.1.1.1.7.7.7.7.7.7.8.8.8.k < * % % ",
"% % % - < G 1.1.7.7.7.7.7.8.8.8.8.8.H < - % % % ",
"$ $ $ $ : < c 3.7.7.7.8.8.8.8.9.6.n < : $ $ $ $ ",
"@ @ @ @ @ - < p R 2.8.8.8.9.5.E y < - # @ @ @ @ ",
"@ @ @ @ @ @ * > < < a v b j q < > * @ @ @ @ @ @ ",
"O O O O O O O + & - > , > : - % + O O O O O O O "
};
