/* XPM */
static char *close_pressed[] = {
/* columns rows colors chars-per-pixel */
"24 24 80 1 ",
"  c #0C0C0C",
". c #202024",
"X c #242424",
"o c #282424",
"O c #282824",
"+ c #242428",
"@ c #282828",
"# c #2D2828",
"$ c #2D2D28",
"% c #28282D",
"& c #2D2D2D",
"* c #31312D",
"= c #35312D",
"- c #2D2D31",
"; c #353531",
": c #313135",
"> c #393931",
", c #393935",
"< c #3D3935",
"1 c #353539",
"2 c #3D3939",
"3 c #3D3D39",
"4 c #39393D",
"5 c #413D39",
"6 c #414139",
"7 c #41413D",
"8 c #3D3D41",
"9 c #454541",
"0 c #454545",
"q c #494945",
"w c #494949",
"e c #4D4D49",
"r c #4D4D4D",
"t c #514D49",
"y c #55514D",
"u c #514D51",
"i c #515151",
"p c #555151",
"a c #555551",
"s c #515155",
"d c #555555",
"f c #595551",
"g c #5D5955",
"h c #555559",
"j c #595559",
"k c #595959",
"l c #5D5D5D",
"z c #616159",
"x c #65655D",
"c c #5D5D61",
"v c #616165",
"b c #656569",
"n c #696971",
"m c #6D6D71",
"M c #717175",
"N c #717179",
"B c #757579",
"V c #75757D",
"C c #757582",
"Z c #797982",
"A c #7D7982",
"S c #797986",
"D c #7D7D86",
"F c #7D7D8A",
"G c #827D8A",
"H c #82828A",
"J c #82828E",
"K c #86868E",
"L c #868692",
"P c #8A8A92",
"I c #8A8A96",
"U c #8E8E96",
"Y c #8E8E9A",
"T c #92929A",
"R c #92929E",
"E c #96969E",
"W c #9696A2",
"Q c #9A9AA2",
"! c #9A9AA6",
"~ c #9E9EA6",
/* pixels */
"xxxxxxxxxxxxxxxxxxxxxxxx",
"zzzzzzzzzzzzzzzzzzzzzzzz",
"gggggggggggggggggggggggg",
"fffffffae963379eafffffff",
"yyyyyyq533quuw335qyyyyyy",
"tttte737cVSSDFSb937etttt",
"qqqq73sCSSDFFHJJHh36qqqq",
"99963jSSDFFHJJJLLLc36999",
"7773rSFFFHJJJLLLPIIi3677",
"3333NFFHVFKLLLJDIUYG3333",
"<<3iHJJJ1+JLIL+4YYYRp3<<",
",,3bJJLLK&.KL.:YRRRRm3,,",
">,3NLLLIIL-..-YRRRRRA3,>",
";,3ZLIIIUYL  LRRRREWK3,;",
";,3VIIYYYI.--%YREWWWD3,;",
"=;3nYYYRI@-YY@-RWWWWm3;=",
"**3pYRRR8%YRET8JWWQQd3**",
"**,3HRRRKYWWWWWWQQ!P3,**",
"$$*3dRREWWWWWWQQ!!!d3*$$",
"$$$;3vWWWWWQQ!!!!!b3;$$$",
"####,3lRWQQ!!!!!Wl3,####",
"OOOOO;30BR!!!~EM93;@OOOO",
"OOOOOO*<33ekki33<*OOOOOO",
"XXXXXXXo&;,32,;$oXXXXXXX"
};
