/* XPM */
static char *close_focus[] = {
/* columns rows colors chars-per-pixel */
"24 24 72 1 ",
"  c #0C0C0C",
". c #242424",
"X c #282424",
"o c #282824",
"O c #242428",
"+ c #282828",
"@ c #2D2828",
"# c #2D2D28",
"$ c #28282D",
"% c #2D2D2D",
"& c #312D2D",
"* c #31312D",
"= c #35312D",
"- c #353531",
"; c #313135",
": c #353535",
"> c #393531",
", c #393931",
"< c #393935",
"1 c #3D3935",
"2 c #393939",
"3 c #3D3939",
"4 c #3D3D39",
"5 c #413D39",
"6 c #414139",
"7 c #41413D",
"8 c #45413D",
"9 c #454141",
"0 c #454541",
"q c #414145",
"w c #494945",
"e c #4D4945",
"r c #494949",
"t c #4D4D49",
"y c #4D4D4D",
"u c #514D49",
"i c #514D4D",
"p c #51514D",
"a c #55514D",
"s c #515151",
"d c #555151",
"f c #555551",
"g c #555555",
"h c #595551",
"j c #5D5955",
"k c #595959",
"l c #5D595D",
"z c #5D5D5D",
"x c #616159",
"c c #65655D",
"v c #616161",
"b c #616165",
"n c #656165",
"m c #656569",
"M c #6D6D71",
"N c #717175",
"B c #7D7D82",
"V c #7D7D86",
"C c #82828A",
"Z c #86868E",
"A c #8A8A92",
"S c #8A8A96",
"D c #8E8E96",
"F c #8E8E9A",
"G c #92929A",
"H c #96969E",
"J c #9696A2",
"K c #9A9AA2",
"L c #9A9AA6",
"P c #9E9EA6",
"I c #9E9EAA",
"U c #A2A2AA",
/* pixels */
"cccccccccccccccccccccccc",
"xxxxxxxxxxxxxxxxxxxxxxxx",
"jjjjjjjjjjjjjjjjjjjjjjjj",
"hhhhhhhft074470tfhhhhhhh",
"aaaaaaw544pggi445eaaaaaa",
"uuuut740NGHHHHDM948tuuuu",
"wwww74zGJJJJJJJJGl46wwww",
"00064mHJJKKKKKKJJHb47000",
"7774fHJKKLLLLLLKKJHs4677",
"4444ZJKKAJPPPPJSKKJZ4444",
"114gHJKLq%KIIK$qLKJHg411",
"<<4NJKKLL;OKKO2LLKKJM4<<",
",<4VJKLPIP:OO:PIPLKJB4<,",
"-<4ZJKLPIUJ  KUIPLKJC4<-",
"-,4VJKLPIK+;;%KIPLKJB4,-",
"=-4MJKKLJ$;PL%;KLKKJM4-=",
"**4gHJKLq%KIIKqALKJHd4**",
"**<4ZJKKAJPPPPLKKKJZ4,**",
"##*4gHJKKLLLLLLKKJHs4*##",
"###-4nHJJKKKKKKJJHv4-###",
"@@@@<4zGJJJJJJJJGk4>@@@@",
"oooo+-49MDHHHHFN04-+oooo",
"oooooo*144yggr441*oooooo",
".......X#-<33<-&X......."
};
