/* XPM */
static char *close_pressed[] = {
/* columns rows colors chars-per-pixel */
"24 24 91 1 ",
"  c #080C04",
". c #142010",
"X c #142410",
"o c #182410",
"O c #182814",
"+ c #182D14",
"@ c #1C2D18",
"# c #1C3118",
"$ c #203518",
"% c #24391C",
"& c #242424",
"* c #282424",
"= c #282824",
"- c #282828",
"; c #2D2828",
": c #2D2D28",
"> c #2D2D2D",
", c #243D20",
"< c #31312D",
"1 c #35312D",
"2 c #353531",
"3 c #393931",
"4 c #393935",
"5 c #3D3935",
"6 c #3D3D35",
"7 c #3D3D39",
"8 c #284120",
"9 c #3D4139",
"0 c #3D4539",
"q c #414139",
"w c #414539",
"e c #41413D",
"r c #414939",
"t c #41493D",
"y c #414D3D",
"u c #41513D",
"i c #45513D",
"p c #45553D",
"a c #45593D",
"s c #49593D",
"d c #454541",
"f c #494945",
"g c #4D4D49",
"h c #514D49",
"j c #455941",
"k c #495941",
"l c #495D41",
"z c #55514D",
"x c #555551",
"c c #595551",
"v c #5D5955",
"b c #496141",
"n c #4D6541",
"m c #4D6941",
"M c #4D6945",
"N c #4D7941",
"B c #517145",
"V c #517545",
"C c #557545",
"Z c #517945",
"A c #557945",
"S c #557D45",
"D c #517949",
"F c #517D49",
"G c #616159",
"H c #65655D",
"J c #518645",
"K c #558645",
"L c #558A45",
"P c #558E45",
"I c #598E45",
"U c #558249",
"Y c #558649",
"T c #598649",
"R c #558A49",
"E c #558E49",
"W c #598A49",
"Q c #598E49",
"! c #5D8E4D",
"~ c #599249",
"^ c #5D9649",
"/ c #59924D",
"( c #5D924D",
") c #5D964D",
"_ c #5D9A4D",
"` c #619A4D",
"' c #619E4D",
"] c #619A51",
"[ c #619E51",
"{ c #61A251",
"} c #65A251",
/* pixels */
"HHHHHHHHHHHHHHHHHHHHHHHH",
"GGGGGGGGGGGGGGGGGGGGGGGG",
"vvvvvvvvvvvvvvvvvvvvvvvv",
"cccccccxgdq77qdgxccccccc",
"zzzzzzf777riit777fzzzzzz",
"hhhhge79bDFUUUUm07eghhhh",
"ffffq7pDUUUUYYRRYa7qffff",
"dddq7jUUUYYYRRWQQQb7qddd",
"eee7uUUYYYRRWQQQ~~~i7qee",
"7777VYYYNKWQQQQJ())T7777",
"557iYRRW%OR~~QO,)___p755",
"447mRWQQQ@.EQX$^____B744",
"347ZQQQ~~~@..#)__`''U743",
"247S~~~())I  ~_`''''W742",
"247S/)))_~o#@O^'''''T742",
"127B))__^O#_^O#_'''{V721",
"<<7p____8+)''_8L[{{{s7<<",
"<<47W_`'P^''''['{{{!74<<",
"::<7p_''''''[{{{{}}p7<::",
":::27n'''[{{{{{}}}M72:::",
";;;;47l`{{{{}}}}[b74;;;;",
"=====27wA]}}}}[Cw72-====",
"======<477ykki775<======",
"&&&&&&&*>246542:*&&&&&&&"
};
