/* XPM */
static char *close_focus[] = {
/* columns rows colors chars-per-pixel */
"24 24 69 1 ",
"  c #080C08",
". c #182414",
"X c #182418",
"o c #1C2818",
"O c #1C2D1C",
"+ c #20311C",
"@ c #242424",
"# c #282424",
"$ c #282824",
"% c #282828",
"& c #2D2828",
"* c #2D2D28",
"= c #312D2D",
"- c #203120",
"; c #243520",
": c #31312D",
"> c #35312D",
", c #353531",
"< c #393531",
"1 c #393931",
"2 c #393935",
"3 c #3D3935",
"4 c #3D3D35",
"5 c #3D3D39",
"6 c #413D39",
"7 c #284128",
"8 c #414139",
"9 c #414539",
"0 c #41413D",
"q c #45413D",
"w c #41453D",
"e c #41493D",
"r c #454541",
"t c #494945",
"y c #4D4945",
"u c #4D4D49",
"i c #514D49",
"p c #455141",
"a c #455541",
"s c #495541",
"d c #495545",
"f c #495945",
"g c #4D5D45",
"h c #55514D",
"j c #555551",
"k c #595551",
"l c #5D5955",
"z c #4D6145",
"x c #4D6149",
"c c #516549",
"v c #556D4D",
"b c #55714D",
"n c #557151",
"m c #597D55",
"M c #616159",
"N c #65655D",
"B c #598255",
"V c #5D8255",
"C c #5D8655",
"Z c #598A55",
"A c #5D8A55",
"S c #5D8E55",
"D c #618A59",
"F c #619259",
"G c #65925D",
"H c #65965D",
"J c #659A5D",
"K c #699A61",
"L c #699E61",
/* pixels */
"NNNNNNNNNNNNNNNNNNNNNNNN",
"MMMMMMMMMMMMMMMMMMMMMMMM",
"llllllllllllllllllllllll",
"kkkkkkkjur8558rujkkkkkkk",
"hhhhhht555pffp556yhhhhhh",
"iiiiu05wnGJJJJFvw5quiiii",
"tttt05zHJJJJJJJJGg58tttt",
"rrr85cJJJJJKKJJJJJc50rrr",
"0005sJJJJKKKKKKJJJJa5800",
"5555AJJKAHLLLLHSKJJC5555",
"335sJJJK7OJLLHo7KJJJs533",
"225bJJKKJ+XHHX;KKKJJb522",
"125VJJKLLK-.X-KLLKJJV521",
",25AJJKLLLG  HLLLKJJC52,",
",15BJJKLLHX++OHLLKJJm51,",
">,5bJJKKHo+KJo+JKKJJb5,>",
"::4sJJJK7OJLLH7ZKJJJs5::",
"::25DJJKAHLLLLKJKJJC51::",
"**:5sJJJJKKKKKKJJJJs5:**",
"***,5cJJJJJKKJJJJJx5,***",
"&&&&25gHJJJJJJJJHf5<&&&&",
"$$$$%,59vFJJJJFbw5,%$$$$",
"$$$$$$:355pfde552:$$$$$$",
"@@@@@@@#*,2332,=#@@@@@@@"
};
